<?xml version="1.0" encoding="utf-8"?>
<!-- Generator: Adobe Illustrator 19.2.0, SVG Export Plug-In . SVG Version: 6.00 Build 0)  -->
<svg version="1.1" id="Layer_1" xmlns="http://www.w3.org/2000/svg" xmlns:xlink="http://www.w3.org/1999/xlink" x="0px" y="0px"
	 width="8px" height="8px" viewBox="0 0 8 8" style="enable-background:new 0 0 8 8;" xml:space="preserve">
<style type="text/css">
	.st0{fill:#F1C40F;}
</style>
<path class="st0" d="M2,1C1.5,1,1,1.2,0.6,1.6C0.2,2,0,2.4,0,3c0,0.5,0.2,1,0.6,1.4L4,7.8l3.4-3.4C7.8,4,8,3.6,8,3
	c0-0.5-0.2-1-0.6-1.4C7,1.2,6.6,1,6,1C5.4,1,5,1.2,4.6,1.6C4.2,1.9,4,2.4,4,3c0-0.5-0.2-1-0.6-1.4C3.1,1.2,2.6,1,2,1z"/>
</svg>
